<svg width="5533" height="3372" viewBox="0 0 5533 3372" fill="none" xmlns="http://www.w3.org/2000/svg">
<path fill-rule="evenodd" clip-rule="evenodd" d="M605.612 1743.4L839.556 1743.53L1251.52 1364.88L1667.46 475.017L1653.79 385.655H1240.43L605.612 1743.4ZM995.365 0L0 2128.72L989.492 2129.27L1568.21 1597.36L2065.97 532.454L1984.55 0.182529L995.365 0Z" fill="white"/>
<path fill-rule="evenodd" clip-rule="evenodd" d="M2158.63 2129.06L2656.24 1064.79L3220.69 1064.63L3799.45 532.454L3718.03 0.182529L3153.88 0.0784296L3153.92 0H2728.53L1733.19 2129.06H2158.63ZM2973.9 385.655H3387.27L3387.56 387.547L3070.58 679.02L2836.75 679.085L2973.9 385.655Z" fill="white"/>
<path fill-rule="evenodd" clip-rule="evenodd" d="M3892.11 2129.06L4389.72 1064.79L4954.17 1064.63L5532.93 532.454L5451.51 0.182529L4887.36 0.0784296L4887.4 0H4462.01L3466.67 2129.06H3892.11ZM4707.38 385.655H5120.75L5121.04 387.547L4804.05 679.02L4570.22 679.085L4707.38 385.655Z" fill="white"/>
<path d="M177.122 2596.28H462.064L528.99 2680.97L477.274 2726.7L423.531 2657.26H207.543L176.108 2685.2V3078.99L215.655 3128.11H429.615L490.457 3077.29L531.018 3128.11L462.064 3189.08H176.108L94.9858 3087.46V2666.57L177.122 2596.28Z" fill="white"/>
<path d="M981.864 2739.4H1268.83L1349.96 2841.02V3118.79L1268.83 3189.08H982.878L900.742 3087.46V2809.69L981.864 2739.4ZM980.85 3078.99L1021.41 3128.11H1236.39L1266.81 3101.01V2848.64L1228.27 2800.37H1012.28L980.85 2828.32V3078.99Z" fill="white"/>
<path d="M1882.94 2739.4H2088.79L2168.89 2841.02V3118.79L2087.77 3189.08H1883.95L1801.82 3148.43V3372H1720.69V2739.4H1801.82V2780.9L1882.94 2739.4ZM1801.82 3078.99L1842.38 3128.11H2056.34L2086.76 3101.85V2849.49L2048.23 2801.22H1833.25L1801.82 2827.47V3078.99Z" fill="white"/>
<path d="M2628.87 2739.4H2908.74L2961.47 2804.61L2911.78 2848.64L2871.22 2798.68H2664.36L2632.92 2821.54V2885.91L2671.46 2931.64H2910.77L2979.72 3018.02V3125.57L2910.77 3189.08H2592.36L2551.8 3136.57L2601.49 3093.39L2628.87 3128.11H2877.3L2898.6 3107.78V3028.18L2869.19 2993.46H2628.87L2551.8 2896.07V2802.07L2628.87 2739.4Z" fill="white"/>
<path d="M4182.58 2596.28H4263.7V2881.67L4343.81 2841.87H4468.54L4550.67 2881.67V2596.28H4632.81V3189.08H4550.67V2950.27L4512.14 2903.69H4294.12L4263.7 2929.1V3189.08H4182.58V2596.28Z" fill="white"/>
<path d="M5003.55 2596.28H5344.26L5453.77 2729.24V2813.92L5353.39 2899.46L5453.77 3020.56V3189.08H5371.64V3028.18L5269.22 2903.69H5164.78L5084.67 2862.19V3189.08H5003.55V2596.28ZM5084.67 2657.26V2841.87H5319.92L5371.64 2798.68V2738.55L5304.71 2657.26H5084.67Z" fill="white"/>
</svg>
